<mxfile host="app.diagrams.net" agent="Mozilla/5.0 (Windows NT 10.0; Win64; x64; rv:135.0) Gecko/20100101 Firefox/135.0" version="26.0.11">
  <diagram name="Página-1" id="06nm9Xx4bJnCgjzHbsF5">
    <mxGraphModel dx="1114" dy="572" grid="1" gridSize="10" guides="1" tooltips="1" connect="1" arrows="1" fold="1" page="1" pageScale="1" pageWidth="827" pageHeight="1169" math="0" shadow="0">
      <root>
        <mxCell id="0" />
        <mxCell id="1" parent="0" />
        <mxCell id="qYywDy25DgV_XH8n1qp7-32" value="" style="swimlane;startSize=0;" vertex="1" parent="1">
          <mxGeometry x="50" y="50" width="170" height="200" as="geometry">
            <mxRectangle x="50" y="50" width="50" height="40" as="alternateBounds" />
          </mxGeometry>
        </mxCell>
        <mxCell id="qYywDy25DgV_XH8n1qp7-14" value="Carambola" style="ellipse;shape=doubleEllipse;margin=3;whiteSpace=wrap;html=1;align=center;fontStyle=1;fillColor=#d5e8d4;strokeColor=#82b366;strokeWidth=2;" vertex="1" parent="qYywDy25DgV_XH8n1qp7-32">
          <mxGeometry x="20" y="10" width="130" height="60" as="geometry" />
        </mxCell>
        <mxCell id="qYywDy25DgV_XH8n1qp7-15" value="Cereja de Jóia Doce" style="ellipse;shape=doubleEllipse;margin=3;whiteSpace=wrap;html=1;align=center;fontStyle=1;fillColor=#d5e8d4;strokeColor=#82b366;strokeWidth=2;" vertex="1" parent="qYywDy25DgV_XH8n1qp7-32">
          <mxGeometry x="20" y="70" width="130" height="60" as="geometry" />
        </mxCell>
        <mxCell id="qYywDy25DgV_XH8n1qp7-16" value="Fruta Antiga" style="ellipse;shape=doubleEllipse;margin=3;whiteSpace=wrap;html=1;align=center;fontStyle=1;fillColor=#d5e8d4;strokeColor=#82b366;strokeWidth=2;" vertex="1" parent="qYywDy25DgV_XH8n1qp7-32">
          <mxGeometry x="20" y="130" width="130" height="60" as="geometry" />
        </mxCell>
        <mxCell id="qYywDy25DgV_XH8n1qp7-4" value="&lt;font style=&quot;font-size: 26px;&quot;&gt;&lt;b&gt;EntityFRUTAS&lt;/b&gt;&lt;/font&gt;" style="rounded=1;arcSize=10;whiteSpace=wrap;html=1;align=center;fillColor=#fff2cc;strokeColor=#d6b656;gradientColor=#ffd966;" vertex="1" parent="1">
          <mxGeometry x="304" y="40" width="220" height="90" as="geometry" />
        </mxCell>
        <mxCell id="qYywDy25DgV_XH8n1qp7-7" value="" style="edgeStyle=orthogonalEdgeStyle;fontSize=12;html=1;endArrow=ERoneToMany;rounded=0;exitX=0;exitY=0.5;exitDx=0;exitDy=0;strokeWidth=3;curved=1;entryX=1;entryY=0.5;entryDx=0;entryDy=0;" edge="1" parent="1" source="qYywDy25DgV_XH8n1qp7-4" target="qYywDy25DgV_XH8n1qp7-32">
          <mxGeometry width="100" height="100" relative="1" as="geometry">
            <mxPoint x="400" y="180" as="sourcePoint" />
            <mxPoint x="240" y="155" as="targetPoint" />
          </mxGeometry>
        </mxCell>
        <mxCell id="qYywDy25DgV_XH8n1qp7-20" value="Relationship" style="shape=rhombus;double=1;perimeter=rhombusPerimeter;whiteSpace=wrap;html=1;align=center;" vertex="1" parent="1">
          <mxGeometry x="304" y="160" width="110" height="60" as="geometry" />
        </mxCell>
        <mxCell id="qYywDy25DgV_XH8n1qp7-21" value="" style="shape=link;html=1;rounded=0;exitX=0.927;exitY=0.5;exitDx=0;exitDy=0;entryX=0.012;entryY=0.625;entryDx=0;entryDy=0;entryPerimeter=0;exitPerimeter=0;" edge="1" parent="1" source="qYywDy25DgV_XH8n1qp7-20" target="qYywDy25DgV_XH8n1qp7-24">
          <mxGeometry width="100" relative="1" as="geometry">
            <mxPoint x="410" y="289.5" as="sourcePoint" />
            <mxPoint x="510" y="289.5" as="targetPoint" />
          </mxGeometry>
        </mxCell>
        <mxCell id="qYywDy25DgV_XH8n1qp7-22" value="" style="shape=link;html=1;rounded=0;entryX=0.082;entryY=0.517;entryDx=0;entryDy=0;entryPerimeter=0;" edge="1" parent="1" source="qYywDy25DgV_XH8n1qp7-32" target="qYywDy25DgV_XH8n1qp7-20">
          <mxGeometry width="100" relative="1" as="geometry">
            <mxPoint x="240" y="208" as="sourcePoint" />
            <mxPoint x="300" y="292" as="targetPoint" />
          </mxGeometry>
        </mxCell>
        <mxCell id="qYywDy25DgV_XH8n1qp7-24" value="&lt;b&gt;&lt;font style=&quot;font-size: 16px;&quot;&gt;QUALIDADE&lt;/font&gt;&lt;/b&gt;" style="rounded=1;arcSize=10;whiteSpace=wrap;html=1;align=center;fillColor=#ffcd28;strokeColor=#d79b00;gradientColor=#ffa500;" vertex="1" parent="1">
          <mxGeometry x="500" y="160" width="246" height="80" as="geometry" />
        </mxCell>
        <mxCell id="qYywDy25DgV_XH8n1qp7-26" value="" style="edgeStyle=orthogonalEdgeStyle;fontSize=12;html=1;endArrow=ERoneToMany;rounded=0;exitX=1;exitY=0.5;exitDx=0;exitDy=0;strokeWidth=3;curved=1;entryX=0;entryY=0.5;entryDx=0;entryDy=0;" edge="1" parent="1" source="qYywDy25DgV_XH8n1qp7-24" target="qYywDy25DgV_XH8n1qp7-31">
          <mxGeometry width="100" height="100" relative="1" as="geometry">
            <mxPoint x="746" y="60" as="sourcePoint" />
            <mxPoint x="790" y="207.5" as="targetPoint" />
          </mxGeometry>
        </mxCell>
        <mxCell id="qYywDy25DgV_XH8n1qp7-31" value="" style="swimlane;startSize=0;" vertex="1" parent="1">
          <mxGeometry x="827" y="100" width="90" height="220" as="geometry">
            <mxRectangle x="827" y="100" width="50" height="40" as="alternateBounds" />
          </mxGeometry>
        </mxCell>
        <mxCell id="qYywDy25DgV_XH8n1qp7-27" value="&lt;font style=&quot;font-size: 14px;&quot;&gt;0&lt;/font&gt;" style="ellipse;whiteSpace=wrap;html=1;align=center;fillColor=#f8cecc;strokeColor=#b85450;" vertex="1" parent="qYywDy25DgV_XH8n1qp7-31">
          <mxGeometry x="22.5" y="15" width="45" height="40" as="geometry" />
        </mxCell>
        <mxCell id="qYywDy25DgV_XH8n1qp7-28" value="1" style="ellipse;whiteSpace=wrap;html=1;align=center;fillColor=#f8cecc;strokeColor=#b85450;" vertex="1" parent="qYywDy25DgV_XH8n1qp7-31">
          <mxGeometry x="22.5" y="65" width="45" height="40" as="geometry" />
        </mxCell>
        <mxCell id="qYywDy25DgV_XH8n1qp7-29" value="2" style="ellipse;whiteSpace=wrap;html=1;align=center;fillColor=#f8cecc;strokeColor=#b85450;" vertex="1" parent="qYywDy25DgV_XH8n1qp7-31">
          <mxGeometry x="22.5" y="115" width="45" height="40" as="geometry" />
        </mxCell>
        <mxCell id="qYywDy25DgV_XH8n1qp7-30" value="3" style="ellipse;whiteSpace=wrap;html=1;align=center;fillColor=#f8cecc;strokeColor=#b85450;" vertex="1" parent="qYywDy25DgV_XH8n1qp7-31">
          <mxGeometry x="22.5" y="165" width="45" height="40" as="geometry" />
        </mxCell>
        <mxCell id="qYywDy25DgV_XH8n1qp7-35" value="&lt;font style=&quot;font-size: 16px;&quot;&gt;&lt;b&gt;PROFISSÃO&lt;/b&gt;&lt;/font&gt;" style="rounded=1;arcSize=10;whiteSpace=wrap;html=1;align=center;fillColor=#dae8fc;strokeColor=#6c8ebf;gradientColor=#7ea6e0;" vertex="1" parent="1">
          <mxGeometry x="370" y="370" width="246" height="80" as="geometry" />
        </mxCell>
        <mxCell id="qYywDy25DgV_XH8n1qp7-36" value="Relationship" style="shape=rhombus;double=1;perimeter=rhombusPerimeter;whiteSpace=wrap;html=1;align=center;" vertex="1" parent="1">
          <mxGeometry x="520" y="280" width="110" height="60" as="geometry" />
        </mxCell>
        <mxCell id="qYywDy25DgV_XH8n1qp7-37" value="" style="shape=link;html=1;rounded=0;entryX=0.5;entryY=1;entryDx=0;entryDy=0;exitX=0.5;exitY=0;exitDx=0;exitDy=0;" edge="1" parent="1" source="qYywDy25DgV_XH8n1qp7-36" target="qYywDy25DgV_XH8n1qp7-24">
          <mxGeometry width="100" relative="1" as="geometry">
            <mxPoint x="470" y="290" as="sourcePoint" />
            <mxPoint x="570" y="290" as="targetPoint" />
          </mxGeometry>
        </mxCell>
        <mxCell id="qYywDy25DgV_XH8n1qp7-38" value="" style="shape=link;html=1;rounded=0;exitX=0.5;exitY=1;exitDx=0;exitDy=0;" edge="1" parent="1" source="qYywDy25DgV_XH8n1qp7-36" target="qYywDy25DgV_XH8n1qp7-35">
          <mxGeometry width="100" relative="1" as="geometry">
            <mxPoint x="540" y="300" as="sourcePoint" />
            <mxPoint x="633" y="250" as="targetPoint" />
          </mxGeometry>
        </mxCell>
        <mxCell id="qYywDy25DgV_XH8n1qp7-39" value="" style="swimlane;startSize=0;" vertex="1" parent="1">
          <mxGeometry x="50" y="610" width="337" height="280" as="geometry">
            <mxRectangle x="50" y="610" width="50" height="40" as="alternateBounds" />
          </mxGeometry>
        </mxCell>
        <mxCell id="qYywDy25DgV_XH8n1qp7-48" value="Fruta" style="ellipse;whiteSpace=wrap;html=1;align=center;dashed=1;fillColor=#fad7ac;strokeColor=#b46504;" vertex="1" parent="qYywDy25DgV_XH8n1qp7-39">
          <mxGeometry x="30" y="40" width="100" height="40" as="geometry" />
        </mxCell>
        <mxCell id="qYywDy25DgV_XH8n1qp7-49" value="Produtos" style="ellipse;whiteSpace=wrap;html=1;align=center;dashed=1;fillColor=#fad9d5;strokeColor=#ae4132;" vertex="1" parent="qYywDy25DgV_XH8n1qp7-39">
          <mxGeometry x="190" y="40" width="100" height="40" as="geometry" />
        </mxCell>
        <mxCell id="qYywDy25DgV_XH8n1qp7-52" value="Vinho" style="ellipse;whiteSpace=wrap;html=1;align=center;fillColor=#b0e3e6;strokeColor=#0e8088;" vertex="1" parent="qYywDy25DgV_XH8n1qp7-39">
          <mxGeometry x="80" y="110" width="100" height="40" as="geometry" />
        </mxCell>
        <mxCell id="qYywDy25DgV_XH8n1qp7-53" value="Geléia" style="ellipse;whiteSpace=wrap;html=1;align=center;fillColor=#b0e3e6;strokeColor=#0e8088;" vertex="1" parent="qYywDy25DgV_XH8n1qp7-39">
          <mxGeometry x="118.5" y="160" width="100" height="40" as="geometry" />
        </mxCell>
        <mxCell id="qYywDy25DgV_XH8n1qp7-54" value="Frutas Secas" style="ellipse;whiteSpace=wrap;html=1;align=center;fillColor=#b0e3e6;strokeColor=#0e8088;" vertex="1" parent="qYywDy25DgV_XH8n1qp7-39">
          <mxGeometry x="180" y="200" width="100" height="40" as="geometry" />
        </mxCell>
        <mxCell id="qYywDy25DgV_XH8n1qp7-58" value="" style="endArrow=classic;html=1;rounded=0;exitX=0.36;exitY=1;exitDx=0;exitDy=0;exitPerimeter=0;entryX=0.76;entryY=0.05;entryDx=0;entryDy=0;entryPerimeter=0;" edge="1" parent="qYywDy25DgV_XH8n1qp7-39" source="qYywDy25DgV_XH8n1qp7-49" target="qYywDy25DgV_XH8n1qp7-52">
          <mxGeometry width="50" height="50" relative="1" as="geometry">
            <mxPoint x="260" y="130" as="sourcePoint" />
            <mxPoint x="310" y="80" as="targetPoint" />
          </mxGeometry>
        </mxCell>
        <mxCell id="qYywDy25DgV_XH8n1qp7-59" value="" style="endArrow=classic;html=1;rounded=0;exitX=0.46;exitY=1;exitDx=0;exitDy=0;exitPerimeter=0;entryX=0.725;entryY=0.125;entryDx=0;entryDy=0;entryPerimeter=0;" edge="1" parent="qYywDy25DgV_XH8n1qp7-39" source="qYywDy25DgV_XH8n1qp7-49" target="qYywDy25DgV_XH8n1qp7-53">
          <mxGeometry width="50" height="50" relative="1" as="geometry">
            <mxPoint x="236" y="90" as="sourcePoint" />
            <mxPoint x="175" y="126" as="targetPoint" />
          </mxGeometry>
        </mxCell>
        <mxCell id="qYywDy25DgV_XH8n1qp7-60" value="" style="endArrow=classic;html=1;rounded=0;exitX=0.58;exitY=1.075;exitDx=0;exitDy=0;exitPerimeter=0;entryX=0.57;entryY=0.05;entryDx=0;entryDy=0;entryPerimeter=0;" edge="1" parent="qYywDy25DgV_XH8n1qp7-39" source="qYywDy25DgV_XH8n1qp7-49" target="qYywDy25DgV_XH8n1qp7-54">
          <mxGeometry width="50" height="50" relative="1" as="geometry">
            <mxPoint x="246" y="90" as="sourcePoint" />
            <mxPoint x="230" y="197" as="targetPoint" />
          </mxGeometry>
        </mxCell>
        <mxCell id="qYywDy25DgV_XH8n1qp7-44" value="&lt;div&gt;PADRÃO&lt;/div&gt;" style="shape=ext;margin=3;double=1;whiteSpace=wrap;html=1;align=center;fillColor=#f9f7ed;strokeColor=#36393d;" vertex="1" parent="1">
          <mxGeometry x="220" y="520" width="100" height="40" as="geometry" />
        </mxCell>
        <mxCell id="qYywDy25DgV_XH8n1qp7-45" value="ESPECIALISTA" style="shape=ext;margin=3;double=1;whiteSpace=wrap;html=1;align=center;fillColor=#cdeb8b;strokeColor=#36393d;" vertex="1" parent="1">
          <mxGeometry x="640" y="520" width="110" height="40" as="geometry" />
        </mxCell>
        <mxCell id="qYywDy25DgV_XH8n1qp7-46" value="" style="endArrow=classic;html=1;rounded=0;exitX=0.033;exitY=1;exitDx=0;exitDy=0;exitPerimeter=0;entryX=1;entryY=0;entryDx=0;entryDy=0;" edge="1" parent="1" source="qYywDy25DgV_XH8n1qp7-35" target="qYywDy25DgV_XH8n1qp7-44">
          <mxGeometry width="50" height="50" relative="1" as="geometry">
            <mxPoint x="220" y="460" as="sourcePoint" />
            <mxPoint x="270" y="410" as="targetPoint" />
          </mxGeometry>
        </mxCell>
        <mxCell id="qYywDy25DgV_XH8n1qp7-47" value="" style="endArrow=classic;html=1;rounded=0;exitX=0.976;exitY=0.988;exitDx=0;exitDy=0;entryX=0;entryY=0;entryDx=0;entryDy=0;exitPerimeter=0;" edge="1" parent="1" source="qYywDy25DgV_XH8n1qp7-35" target="qYywDy25DgV_XH8n1qp7-45">
          <mxGeometry width="50" height="50" relative="1" as="geometry">
            <mxPoint x="500" y="530" as="sourcePoint" />
            <mxPoint x="550" y="480" as="targetPoint" />
          </mxGeometry>
        </mxCell>
        <mxCell id="qYywDy25DgV_XH8n1qp7-55" value="" style="edgeStyle=orthogonalEdgeStyle;fontSize=12;html=1;endArrow=ERoneToMany;rounded=0;exitX=0.5;exitY=1;exitDx=0;exitDy=0;entryX=0.5;entryY=0;entryDx=0;entryDy=0;curved=1;" edge="1" parent="1" source="qYywDy25DgV_XH8n1qp7-44" target="qYywDy25DgV_XH8n1qp7-39">
          <mxGeometry width="100" height="100" relative="1" as="geometry">
            <mxPoint x="510" y="740" as="sourcePoint" />
            <mxPoint x="610" y="640" as="targetPoint" />
          </mxGeometry>
        </mxCell>
        <mxCell id="qYywDy25DgV_XH8n1qp7-61" value="CULTIVADOR" style="ellipse;whiteSpace=wrap;html=1;align=center;fontStyle=4;fillColor=#fff2cc;gradientColor=#ffd966;strokeColor=#d6b656;" vertex="1" parent="1">
          <mxGeometry x="630" y="580" width="100" height="40" as="geometry" />
        </mxCell>
        <mxCell id="qYywDy25DgV_XH8n1qp7-62" value="ARTESÃO" style="ellipse;whiteSpace=wrap;html=1;align=center;fontStyle=4;fillColor=#e6d0de;gradientColor=#d5739d;strokeColor=#996185;" vertex="1" parent="1">
          <mxGeometry x="420" y="580" width="100" height="40" as="geometry" />
        </mxCell>
        <mxCell id="qYywDy25DgV_XH8n1qp7-63" value="Fruta" style="ellipse;whiteSpace=wrap;html=1;align=center;dashed=1;fillColor=#fad7ac;strokeColor=#b46504;" vertex="1" parent="1">
          <mxGeometry x="697" y="650" width="100" height="40" as="geometry" />
        </mxCell>
        <mxCell id="qYywDy25DgV_XH8n1qp7-64" value="" style="endArrow=classic;html=1;rounded=0;exitX=0.78;exitY=0.975;exitDx=0;exitDy=0;entryX=0.5;entryY=0;entryDx=0;entryDy=0;exitPerimeter=0;" edge="1" parent="1" source="qYywDy25DgV_XH8n1qp7-61" target="qYywDy25DgV_XH8n1qp7-63">
          <mxGeometry width="50" height="50" relative="1" as="geometry">
            <mxPoint x="490" y="690" as="sourcePoint" />
            <mxPoint x="540" y="640" as="targetPoint" />
          </mxGeometry>
        </mxCell>
        <mxCell id="qYywDy25DgV_XH8n1qp7-65" value="" style="swimlane;startSize=0;" vertex="1" parent="1">
          <mxGeometry x="400" y="720" width="257" height="260" as="geometry">
            <mxRectangle x="400" y="720" width="50" height="40" as="alternateBounds" />
          </mxGeometry>
        </mxCell>
        <mxCell id="qYywDy25DgV_XH8n1qp7-67" value="Produtos" style="ellipse;whiteSpace=wrap;html=1;align=center;dashed=1;fillColor=#fad9d5;strokeColor=#ae4132;" vertex="1" parent="qYywDy25DgV_XH8n1qp7-65">
          <mxGeometry x="127" y="30" width="100" height="40" as="geometry" />
        </mxCell>
        <mxCell id="qYywDy25DgV_XH8n1qp7-68" value="Vinho" style="ellipse;whiteSpace=wrap;html=1;align=center;fillColor=#b0e3e6;strokeColor=#0e8088;" vertex="1" parent="qYywDy25DgV_XH8n1qp7-65">
          <mxGeometry x="17" y="100" width="100" height="40" as="geometry" />
        </mxCell>
        <mxCell id="qYywDy25DgV_XH8n1qp7-69" value="Geléia" style="ellipse;whiteSpace=wrap;html=1;align=center;fillColor=#b0e3e6;strokeColor=#0e8088;" vertex="1" parent="qYywDy25DgV_XH8n1qp7-65">
          <mxGeometry x="55.5" y="150" width="100" height="40" as="geometry" />
        </mxCell>
        <mxCell id="qYywDy25DgV_XH8n1qp7-70" value="Frutas Secas" style="ellipse;whiteSpace=wrap;html=1;align=center;fillColor=#b0e3e6;strokeColor=#0e8088;" vertex="1" parent="qYywDy25DgV_XH8n1qp7-65">
          <mxGeometry x="117" y="190" width="100" height="40" as="geometry" />
        </mxCell>
        <mxCell id="qYywDy25DgV_XH8n1qp7-71" value="" style="endArrow=classic;html=1;rounded=0;exitX=0.36;exitY=1;exitDx=0;exitDy=0;exitPerimeter=0;entryX=0.76;entryY=0.05;entryDx=0;entryDy=0;entryPerimeter=0;" edge="1" parent="qYywDy25DgV_XH8n1qp7-65" source="qYywDy25DgV_XH8n1qp7-67" target="qYywDy25DgV_XH8n1qp7-68">
          <mxGeometry width="50" height="50" relative="1" as="geometry">
            <mxPoint x="197" y="120" as="sourcePoint" />
            <mxPoint x="247" y="70" as="targetPoint" />
          </mxGeometry>
        </mxCell>
        <mxCell id="qYywDy25DgV_XH8n1qp7-72" value="" style="endArrow=classic;html=1;rounded=0;exitX=0.46;exitY=1;exitDx=0;exitDy=0;exitPerimeter=0;entryX=0.725;entryY=0.125;entryDx=0;entryDy=0;entryPerimeter=0;" edge="1" parent="qYywDy25DgV_XH8n1qp7-65" source="qYywDy25DgV_XH8n1qp7-67" target="qYywDy25DgV_XH8n1qp7-69">
          <mxGeometry width="50" height="50" relative="1" as="geometry">
            <mxPoint x="173" y="80" as="sourcePoint" />
            <mxPoint x="112" y="116" as="targetPoint" />
          </mxGeometry>
        </mxCell>
        <mxCell id="qYywDy25DgV_XH8n1qp7-73" value="" style="endArrow=classic;html=1;rounded=0;exitX=0.58;exitY=1.075;exitDx=0;exitDy=0;exitPerimeter=0;entryX=0.57;entryY=0.05;entryDx=0;entryDy=0;entryPerimeter=0;" edge="1" parent="qYywDy25DgV_XH8n1qp7-65" source="qYywDy25DgV_XH8n1qp7-67" target="qYywDy25DgV_XH8n1qp7-70">
          <mxGeometry width="50" height="50" relative="1" as="geometry">
            <mxPoint x="183" y="80" as="sourcePoint" />
            <mxPoint x="167" y="187" as="targetPoint" />
          </mxGeometry>
        </mxCell>
        <mxCell id="qYywDy25DgV_XH8n1qp7-74" value="" style="endArrow=classic;html=1;rounded=0;exitX=0;exitY=1;exitDx=0;exitDy=0;" edge="1" parent="1" source="qYywDy25DgV_XH8n1qp7-62" target="qYywDy25DgV_XH8n1qp7-48">
          <mxGeometry width="50" height="50" relative="1" as="geometry">
            <mxPoint x="490" y="750" as="sourcePoint" />
            <mxPoint x="540" y="700" as="targetPoint" />
          </mxGeometry>
        </mxCell>
        <mxCell id="qYywDy25DgV_XH8n1qp7-75" value="" style="endArrow=classic;html=1;rounded=0;exitX=0.7;exitY=0.925;exitDx=0;exitDy=0;exitPerimeter=0;" edge="1" parent="1" source="qYywDy25DgV_XH8n1qp7-62" target="qYywDy25DgV_XH8n1qp7-65">
          <mxGeometry width="50" height="50" relative="1" as="geometry">
            <mxPoint x="490" y="750" as="sourcePoint" />
            <mxPoint x="540" y="700" as="targetPoint" />
          </mxGeometry>
        </mxCell>
      </root>
    </mxGraphModel>
  </diagram>
</mxfile>
